<?xml version="1.0" standalone="no"?>
<!DOCTYPE svg PUBLIC "-//W3C//DTD SVG 20010904//EN"
 "http://www.w3.org/TR/2001/REC-SVG-20010904/DTD/svg10.dtd">
<svg version="1.0" xmlns="http://www.w3.org/2000/svg"
 width="512.000000pt" height="512.000000pt" viewBox="0 0 512.000000 512.000000"
 preserveAspectRatio="xMidYMid meet">

<g transform="translate(0.000000,512.000000) scale(0.100000,-0.100000)"
fill="#000000" stroke="none">
<path d="M3035 5110 c-18 -6 -19 -17 -21 -161 -1 -178 -18 -260 -84 -397 -63
-131 -125 -190 -450 -424 -323 -232 -462 -376 -569 -585 -71 -138 -87 -256
-56 -400 49 -230 232 -501 494 -730 65 -57 90 -73 110 -71 17 2 27 10 29 23 1
11 -24 81 -56 155 -131 298 -200 550 -204 740 -1 75 2 91 27 140 36 72 146
180 370 365 320 264 438 392 520 560 106 217 99 457 -20 695 -39 77 -62 101
-90 90z"/>
<path d="M3455 4039 c-273 -110 -559 -276 -717 -416 -175 -155 -237 -279 -225
-449 13 -184 67 -315 206 -498 59 -77 93 -131 97 -155 10 -50 -10 -157 -47
-251 -33 -85 -32 -120 3 -120 49 0 188 132 271 257 61 91 88 175 88 272 0 115
-33 199 -154 389 -101 159 -108 233 -35 363 41 73 277 305 456 449 143 115
160 138 130 168 -15 15 -13 15 -73 -9z"/>
</g>
</svg>
